<svg width="1280" height="720" xmlns="http://www.w3.org/2000/svg" xmlns:xlink="http://www.w3.org/1999/xlink" overflow="hidden"><defs><clipPath id="clip0"><rect x="0" y="0" width="1280" height="720"/></clipPath></defs><g clip-path="url(#clip0)"><rect x="0" y="0" width="1280" height="720" fill="#FFFFFF"/><path d="M170.773 138.851C172.021 141.558 187.858 137.013 207.541 128.301L206.562 126.177 212.783 128.499 210.478 134.674 209.499 132.55C189.817 141.262 173.979 145.806 172.732 143.099Z" fill="#4472C4" fill-rule="evenodd"/><path d="M208.866 120.003C193.525 127.075 180.218 134.726 174.974 139.49 165.211 140.732 172.69 133.489 191.679 123.313 196.412 120.776 201.597 118.203 206.908 115.755Z" fill="#375C9E" fill-rule="evenodd"/><path d="M170.773 138.851C172.021 141.558 187.858 137.013 207.541 128.301L206.562 126.177 212.783 128.499 210.478 134.674 209.499 132.55C189.817 141.262 173.979 145.806 172.732 143.099L170.773 138.851C169.421 135.918 185.599 125.578 206.908 115.755L208.866 120.003C193.525 127.075 180.218 134.726 174.974 139.49" stroke="#2F528F" stroke-width="1.33333" stroke-miterlimit="8" fill="none" fill-rule="evenodd"/><path d="M180.462 106.286 189.272 118.942C190.219 120.302 189.884 122.171 188.524 123.118 187.164 124.065 185.295 123.73 184.348 122.37L175.538 109.714C174.591 108.354 174.926 106.484 176.286 105.538 177.646 104.591 179.516 104.926 180.462 106.286ZM192.483 113.052 195.38 132.967 177.71 123.336Z" fill="#A9D18E"/><path d="M3-9.34061e-06 3.00006 18.7195-2.99994 18.7195-3 9.34061e-06ZM9.00005 15.7194 0.000104987 33.7195-8.99995 15.7195Z" fill="#00B0F0" transform="matrix(1 0 0 -1 178 106.719)"/><path d="M178.063 104.001 224.23 104.975C225.887 105.01 227.201 106.382 227.166 108.038 227.131 109.695 225.76 111.009 224.104 110.974L177.937 109.999C176.28 109.964 174.966 108.593 175.001 106.937 175.036 105.28 176.407 103.966 178.063 104.001ZM221.358 98.9134 239.164 108.291 220.978 116.909Z" fill="#00B0F0"/><path d="M129.501 116.576C128.537 112.862 150.843 103.853 179.324 96.4528 207.805 89.0527 231.676 86.0642 232.641 89.7779 233.606 93.4916 211.299 102.501 182.818 109.901 154.337 117.301 130.466 120.29 129.501 116.576Z" fill="#4472C4" fill-rule="evenodd"/></g></svg>